<?xml version="1.0" encoding="utf-8" standalone="no"?>
<!DOCTYPE svg PUBLIC "-//W3C//DTD SVG 1.1//EN"
  "http://www.w3.org/Graphics/SVG/1.1/DTD/svg11.dtd">
<svg xmlns:xlink="http://www.w3.org/1999/xlink" width="460.8pt" height="345.6pt" viewBox="0 0 460.8 345.6" xmlns="http://www.w3.org/2000/svg" version="1.1">
 <metadata>
  <rdf:RDF xmlns:dc="http://purl.org/dc/elements/1.1/" xmlns:cc="http://creativecommons.org/ns#" xmlns:rdf="http://www.w3.org/1999/02/22-rdf-syntax-ns#">
   <cc:Work>
    <dc:type rdf:resource="http://purl.org/dc/dcmitype/StillImage"/>
    <dc:date>2023-12-11T17:55:32.149685</dc:date>
    <dc:format>image/svg+xml</dc:format>
    <dc:creator>
     <cc:Agent>
      <dc:title>Matplotlib v3.8.2, https://matplotlib.org/</dc:title>
     </cc:Agent>
    </dc:creator>
   </cc:Work>
  </rdf:RDF>
 </metadata>
 <defs>
  <style type="text/css">*{stroke-linejoin: round; stroke-linecap: butt}</style>
 </defs>
 <g id="figure_1">
  <g id="patch_1">
   <path d="M 0 345.6 
L 460.8 345.6 
L 460.8 0 
L 0 0 
z
" style="fill: #ffffff"/>
  </g>
  <g id="patch_2">
   <path d="M 103.104 307.584 
L 369.216 307.584 
L 369.216 41.472 
L 103.104 41.472 
z
" style="fill: #ffffff"/>
  </g>
  <g id="pane3d_1">
   <g id="patch_3">
    <path d="M 230.189126 201.52022 
L 348.280495 239.088571 
L 352.662643 92.353977 
L 229.826837 62.486912 
" style="fill: #f2f2f2; opacity: 0.5; stroke: #f2f2f2; stroke-linejoin: miter"/>
   </g>
  </g>
  <g id="pane3d_2">
   <g id="patch_4">
    <path d="M 129.781267 247.469479 
L 230.189126 201.52022 
L 229.826837 62.486912 
L 125.278769 99.036575 
" style="fill: #e6e6e6; opacity: 0.5; stroke: #e6e6e6; stroke-linejoin: miter"/>
   </g>
  </g>
  <g id="pane3d_3">
   <g id="patch_5">
    <path d="M 129.781267 247.469479 
L 230.189126 201.52022 
L 348.280495 239.088571 
L 250.780786 291.340633 
" style="fill: #ececec; opacity: 0.5; stroke: #ececec; stroke-linejoin: miter"/>
   </g>
  </g>
  <g id="grid3d_1">
   <g id="Line3DCollection_1">
    <path d="M 254.868264 289.150071 
L 133.970626 245.552319 
L 129.653245 97.507272 
" style="fill: none; stroke: #b0b0b0; stroke-width: 0.8"/>
    <path d="M 274.31834 278.726383 
L 153.929431 236.418648 
L 150.479151 90.226604 
" style="fill: none; stroke: #b0b0b0; stroke-width: 0.8"/>
    <path d="M 293.178667 268.618753 
L 173.320919 227.544597 
L 170.689649 83.16108 
" style="fill: none; stroke: #b0b0b0; stroke-width: 0.8"/>
    <path d="M 311.475668 258.81302 
L 192.168941 218.91925 
L 190.311618 76.301304 
" style="fill: none; stroke: #b0b0b0; stroke-width: 0.8"/>
    <path d="M 329.23421 249.295859 
L 210.496027 210.532297 
L 209.370398 69.638417 
" style="fill: none; stroke: #b0b0b0; stroke-width: 0.8"/>
    <path d="M 346.477718 240.054715 
L 228.32348 202.373989 
L 227.889892 63.164062 
" style="fill: none; stroke: #b0b0b0; stroke-width: 0.8"/>
   </g>
  </g>
  <g id="grid3d_2">
   <g id="Line3DCollection_2">
    <path d="M 234.310049 63.576988 
L 234.509222 202.89457 
L 134.186563 249.06672 
" style="fill: none; stroke: #b0b0b0; stroke-width: 0.8"/>
    <path d="M 256.358115 68.937893 
L 255.744006 209.649982 
L 155.863436 256.926168 
" style="fill: none; stroke: #b0b0b0; stroke-width: 0.8"/>
    <path d="M 278.935985 74.427617 
L 277.469957 216.561648 
L 178.081861 264.981968 
" style="fill: none; stroke: #b0b0b0; stroke-width: 0.8"/>
    <path d="M 302.062985 80.05086 
L 299.704315 223.635054 
L 200.862389 273.241572 
" style="fill: none; stroke: #b0b0b0; stroke-width: 0.8"/>
    <path d="M 325.759396 85.812554 
L 322.465138 230.875944 
L 224.226622 281.712811 
" style="fill: none; stroke: #b0b0b0; stroke-width: 0.8"/>
    <path d="M 350.046509 91.717874 
L 345.771348 238.290337 
L 248.197288 290.403926 
" style="fill: none; stroke: #b0b0b0; stroke-width: 0.8"/>
   </g>
  </g>
  <g id="grid3d_3">
   <g id="Line3DCollection_3">
    <path d="M 129.613082 241.924975 
L 230.175554 196.312027 
L 348.444269 233.604656 
" style="fill: none; stroke: #b0b0b0; stroke-width: 0.8"/>
    <path d="M 128.790294 214.800298 
L 230.109204 170.849227 
L 349.245385 206.779579 
" style="fill: none; stroke: #b0b0b0; stroke-width: 0.8"/>
    <path d="M 127.955121 187.267318 
L 230.041929 145.031283 
L 350.058399 179.556122 
" style="fill: none; stroke: #b0b0b0; stroke-width: 0.8"/>
    <path d="M 127.107281 159.316748 
L 229.973708 118.850712 
L 350.883577 151.925345 
" style="fill: none; stroke: #b0b0b0; stroke-width: 0.8"/>
    <path d="M 126.246483 130.939012 
L 229.904523 92.29982 
L 351.721194 123.878036 
" style="fill: none; stroke: #b0b0b0; stroke-width: 0.8"/>
    <path d="M 125.372429 102.124245 
L 229.834352 65.370694 
L 352.571535 95.404707 
" style="fill: none; stroke: #b0b0b0; stroke-width: 0.8"/>
   </g>
  </g>
  <g id="axis3d_1">
   <g id="line2d_1">
    <path d="M 348.280495 239.088571 
L 250.780786 291.340633 
" style="fill: none; stroke: #000000; stroke-width: 0.8; stroke-linecap: square"/>
   </g>
   <g id="xtick_1">
    <g id="line2d_2">
     <path d="M 253.835094 288.777492 
L 256.938023 289.896461 
" style="fill: none; stroke: #000000; stroke-width: 0.8; stroke-linecap: square"/>
    </g>
    <g id="text_1">
     <!-- 0 -->
     <g transform="translate(262.379841 313.113982) scale(0.1 -0.1)">
      <defs>
       <path id="DejaVuSans-30" d="M 2034 4250 
Q 1547 4250 1301 3770 
Q 1056 3291 1056 2328 
Q 1056 1369 1301 889 
Q 1547 409 2034 409 
Q 2525 409 2770 889 
Q 3016 1369 3016 2328 
Q 3016 3291 2770 3770 
Q 2525 4250 2034 4250 
z
M 2034 4750 
Q 2819 4750 3233 4129 
Q 3647 3509 3647 2328 
Q 3647 1150 3233 529 
Q 2819 -91 2034 -91 
Q 1250 -91 836 529 
Q 422 1150 422 2328 
Q 422 3509 836 4129 
Q 1250 4750 2034 4750 
z
" transform="scale(0.015625)"/>
      </defs>
      <use xlink:href="#DejaVuSans-30"/>
     </g>
    </g>
   </g>
   <g id="xtick_2">
    <g id="line2d_3">
     <path d="M 273.290528 278.365183 
L 276.377311 279.449958 
" style="fill: none; stroke: #000000; stroke-width: 0.8; stroke-linecap: square"/>
    </g>
    <g id="text_2">
     <!-- 100 -->
     <g transform="translate(275.345297 302.414847) scale(0.1 -0.1)">
      <defs>
       <path id="DejaVuSans-31" d="M 794 531 
L 1825 531 
L 1825 4091 
L 703 3866 
L 703 4441 
L 1819 4666 
L 2450 4666 
L 2450 531 
L 3481 531 
L 3481 0 
L 794 0 
L 794 531 
z
" transform="scale(0.015625)"/>
      </defs>
      <use xlink:href="#DejaVuSans-31"/>
      <use xlink:href="#DejaVuSans-30" x="63.623047"/>
      <use xlink:href="#DejaVuSans-30" x="127.246094"/>
     </g>
    </g>
   </g>
   <g id="xtick_3">
    <g id="line2d_4">
     <path d="M 292.156366 268.268419 
L 295.226548 269.320543 
" style="fill: none; stroke: #000000; stroke-width: 0.8; stroke-linecap: square"/>
    </g>
    <g id="text_3">
     <!-- 200 -->
     <g transform="translate(294.085935 292.040825) scale(0.1 -0.1)">
      <defs>
       <path id="DejaVuSans-32" d="M 1228 531 
L 3431 531 
L 3431 0 
L 469 0 
L 469 531 
Q 828 903 1448 1529 
Q 2069 2156 2228 2338 
Q 2531 2678 2651 2914 
Q 2772 3150 2772 3378 
Q 2772 3750 2511 3984 
Q 2250 4219 1831 4219 
Q 1534 4219 1204 4116 
Q 875 4013 500 3803 
L 500 4441 
Q 881 4594 1212 4672 
Q 1544 4750 1819 4750 
Q 2544 4750 2975 4387 
Q 3406 4025 3406 3419 
Q 3406 3131 3298 2873 
Q 3191 2616 2906 2266 
Q 2828 2175 2409 1742 
Q 1991 1309 1228 531 
z
" transform="scale(0.015625)"/>
      </defs>
      <use xlink:href="#DejaVuSans-32"/>
      <use xlink:href="#DejaVuSans-30" x="63.623047"/>
      <use xlink:href="#DejaVuSans-30" x="127.246094"/>
     </g>
    </g>
   </g>
   <g id="xtick_4">
    <g id="line2d_5">
     <path d="M 310.459009 258.47307 
L 313.512198 259.493995 
" style="fill: none; stroke: #000000; stroke-width: 0.8; stroke-linecap: square"/>
    </g>
    <g id="text_4">
     <!-- 300 -->
     <g transform="translate(312.265627 281.97732) scale(0.1 -0.1)">
      <defs>
       <path id="DejaVuSans-33" d="M 2597 2516 
Q 3050 2419 3304 2112 
Q 3559 1806 3559 1356 
Q 3559 666 3084 287 
Q 2609 -91 1734 -91 
Q 1441 -91 1130 -33 
Q 819 25 488 141 
L 488 750 
Q 750 597 1062 519 
Q 1375 441 1716 441 
Q 2309 441 2620 675 
Q 2931 909 2931 1356 
Q 2931 1769 2642 2001 
Q 2353 2234 1838 2234 
L 1294 2234 
L 1294 2753 
L 1863 2753 
Q 2328 2753 2575 2939 
Q 2822 3125 2822 3475 
Q 2822 3834 2567 4026 
Q 2313 4219 1838 4219 
Q 1578 4219 1281 4162 
Q 984 4106 628 3988 
L 628 4550 
Q 988 4650 1302 4700 
Q 1616 4750 1894 4750 
Q 2613 4750 3031 4423 
Q 3450 4097 3450 3541 
Q 3450 3153 3228 2886 
Q 3006 2619 2597 2516 
z
" transform="scale(0.015625)"/>
      </defs>
      <use xlink:href="#DejaVuSans-33"/>
      <use xlink:href="#DejaVuSans-30" x="63.623047"/>
      <use xlink:href="#DejaVuSans-30" x="127.246094"/>
     </g>
    </g>
   </g>
   <g id="xtick_5">
    <g id="line2d_6">
     <path d="M 328.223306 248.965837 
L 331.259164 249.956931 
" style="fill: none; stroke: #000000; stroke-width: 0.8; stroke-linecap: square"/>
    </g>
    <g id="text_5">
     <!-- 400 -->
     <g transform="translate(329.909185 272.210596) scale(0.1 -0.1)">
      <defs>
       <path id="DejaVuSans-34" d="M 2419 4116 
L 825 1625 
L 2419 1625 
L 2419 4116 
z
M 2253 4666 
L 3047 4666 
L 3047 1625 
L 3713 1625 
L 3713 1100 
L 3047 1100 
L 3047 0 
L 2419 0 
L 2419 1100 
L 313 1100 
L 313 1709 
L 2253 4666 
z
" transform="scale(0.015625)"/>
      </defs>
      <use xlink:href="#DejaVuSans-34"/>
      <use xlink:href="#DejaVuSans-30" x="63.623047"/>
      <use xlink:href="#DejaVuSans-30" x="127.246094"/>
     </g>
    </g>
   </g>
   <g id="xtick_6">
    <g id="line2d_7">
     <path d="M 345.472665 239.734193 
L 348.490905 240.696744 
" style="fill: none; stroke: #000000; stroke-width: 0.8; stroke-linecap: square"/>
    </g>
    <g id="text_6">
     <!-- 500 -->
     <g transform="translate(347.039982 262.727714) scale(0.1 -0.1)">
      <defs>
       <path id="DejaVuSans-35" d="M 691 4666 
L 3169 4666 
L 3169 4134 
L 1269 4134 
L 1269 2991 
Q 1406 3038 1543 3061 
Q 1681 3084 1819 3084 
Q 2600 3084 3056 2656 
Q 3513 2228 3513 1497 
Q 3513 744 3044 326 
Q 2575 -91 1722 -91 
Q 1428 -91 1123 -41 
Q 819 9 494 109 
L 494 744 
Q 775 591 1075 516 
Q 1375 441 1709 441 
Q 2250 441 2565 725 
Q 2881 1009 2881 1497 
Q 2881 1984 2565 2268 
Q 2250 2553 1709 2553 
Q 1456 2553 1204 2497 
Q 953 2441 691 2322 
L 691 4666 
z
" transform="scale(0.015625)"/>
      </defs>
      <use xlink:href="#DejaVuSans-35"/>
      <use xlink:href="#DejaVuSans-30" x="63.623047"/>
      <use xlink:href="#DejaVuSans-30" x="127.246094"/>
     </g>
    </g>
   </g>
   <g id="text_7">
    <!-- X -->
    <g transform="translate(320.717042 301.160366) scale(0.1 -0.1)">
     <defs>
      <path id="DejaVuSans-58" d="M 403 4666 
L 1081 4666 
L 2241 2931 
L 3406 4666 
L 4084 4666 
L 2584 2425 
L 4184 0 
L 3506 0 
L 2194 1984 
L 872 0 
L 191 0 
L 1856 2491 
L 403 4666 
z
" transform="scale(0.015625)"/>
     </defs>
     <use xlink:href="#DejaVuSans-58"/>
    </g>
   </g>
  </g>
  <g id="axis3d_2">
   <g id="line2d_8">
    <path d="M 129.781267 247.469479 
L 250.780786 291.340633 
" style="fill: none; stroke: #000000; stroke-width: 0.8; stroke-linecap: square"/>
   </g>
   <g id="xtick_7">
    <g id="line2d_9">
     <path d="M 135.051319 248.668727 
L 132.453803 249.864199 
" style="fill: none; stroke: #000000; stroke-width: 0.8; stroke-linecap: square"/>
    </g>
    <g id="text_8">
     <!-- 0 -->
     <g transform="translate(122.348398 272.70304) scale(0.1 -0.1)">
      <use xlink:href="#DejaVuSans-30"/>
     </g>
    </g>
   </g>
   <g id="xtick_8">
    <g id="line2d_10">
     <path d="M 156.725145 256.518298 
L 154.136743 257.743459 
" style="fill: none; stroke: #000000; stroke-width: 0.8; stroke-linecap: square"/>
    </g>
    <g id="text_9">
     <!-- 100 -->
     <g transform="translate(137.626337 280.786639) scale(0.1 -0.1)">
      <use xlink:href="#DejaVuSans-31"/>
      <use xlink:href="#DejaVuSans-30" x="63.623047"/>
      <use xlink:href="#DejaVuSans-30" x="127.246094"/>
     </g>
    </g>
   </g>
   <g id="xtick_9">
    <g id="line2d_11">
     <path d="M 178.9401 264.563848 
L 176.362081 265.819818 
" style="fill: none; stroke: #000000; stroke-width: 0.8; stroke-linecap: square"/>
    </g>
    <g id="text_10">
     <!-- 200 -->
     <g transform="translate(159.809202 289.072856) scale(0.1 -0.1)">
      <use xlink:href="#DejaVuSans-32"/>
      <use xlink:href="#DejaVuSans-30" x="63.623047"/>
      <use xlink:href="#DejaVuSans-30" x="127.246094"/>
     </g>
    </g>
   </g>
   <g id="xtick_10">
    <g id="line2d_12">
     <path d="M 201.716704 272.81281 
L 199.150427 274.100766 
" style="fill: none; stroke: #000000; stroke-width: 0.8; stroke-linecap: square"/>
    </g>
    <g id="text_11">
     <!-- 300 -->
     <g transform="translate(182.555148 297.569407) scale(0.1 -0.1)">
      <use xlink:href="#DejaVuSans-33"/>
      <use xlink:href="#DejaVuSans-30" x="63.623047"/>
      <use xlink:href="#DejaVuSans-30" x="127.246094"/>
     </g>
    </g>
   </g>
   <g id="xtick_11">
    <g id="line2d_13">
     <path d="M 225.076532 281.272996 
L 222.523448 282.594177 
" style="fill: none; stroke: #000000; stroke-width: 0.8; stroke-linecap: square"/>
    </g>
    <g id="text_12">
     <!-- 400 -->
     <g transform="translate(205.885888 306.284403) scale(0.1 -0.1)">
      <use xlink:href="#DejaVuSans-34"/>
      <use xlink:href="#DejaVuSans-30" x="63.623047"/>
      <use xlink:href="#DejaVuSans-30" x="127.246094"/>
     </g>
    </g>
   </g>
   <g id="xtick_12">
    <g id="line2d_14">
     <path d="M 249.042273 289.952626 
L 246.503938 291.308332 
" style="fill: none; stroke: #000000; stroke-width: 0.8; stroke-linecap: square"/>
    </g>
    <g id="text_13">
     <!-- 500 -->
     <g transform="translate(229.824269 315.226378) scale(0.1 -0.1)">
      <use xlink:href="#DejaVuSans-35"/>
      <use xlink:href="#DejaVuSans-30" x="63.623047"/>
      <use xlink:href="#DejaVuSans-30" x="127.246094"/>
     </g>
    </g>
   </g>
   <g id="text_14">
    <!-- Y -->
    <g transform="translate(166.123946 307.656905) scale(0.1 -0.1)">
     <defs>
      <path id="DejaVuSans-59" d="M -13 4666 
L 666 4666 
L 1959 2747 
L 3244 4666 
L 3922 4666 
L 2272 2222 
L 2272 0 
L 1638 0 
L 1638 2222 
L -13 4666 
z
" transform="scale(0.015625)"/>
     </defs>
     <use xlink:href="#DejaVuSans-59"/>
    </g>
   </g>
  </g>
  <g id="axis3d_3">
   <g id="line2d_15">
    <path d="M 129.781267 247.469479 
L 125.278769 99.036575 
" style="fill: none; stroke: #000000; stroke-width: 0.8; stroke-linecap: square"/>
   </g>
   <g id="xtick_13">
    <g id="line2d_16">
     <path d="M 130.479844 241.53183 
L 127.876306 242.712739 
" style="fill: none; stroke: #000000; stroke-width: 0.8; stroke-linecap: square"/>
    </g>
    <g id="text_15">
     <!-- 0 -->
     <g transform="translate(108.011341 250.22379) scale(0.1 -0.1)">
      <use xlink:href="#DejaVuSans-30"/>
     </g>
    </g>
   </g>
   <g id="xtick_14">
    <g id="line2d_17">
     <path d="M 129.664045 214.421274 
L 127.039491 215.559778 
" style="fill: none; stroke: #000000; stroke-width: 0.8; stroke-linecap: square"/>
    </g>
    <g id="text_16">
     <!-- 100 -->
     <g transform="translate(100.687373 223.073965) scale(0.1 -0.1)">
      <use xlink:href="#DejaVuSans-31"/>
      <use xlink:href="#DejaVuSans-30" x="63.623047"/>
      <use xlink:href="#DejaVuSans-30" x="127.246094"/>
     </g>
    </g>
   </g>
   <g id="xtick_15">
    <g id="line2d_18">
     <path d="M 128.835973 186.902887 
L 126.190064 187.99757 
" style="fill: none; stroke: #000000; stroke-width: 0.8; stroke-linecap: square"/>
    </g>
    <g id="text_17">
     <!-- 200 -->
     <g transform="translate(99.711416 195.514999) scale(0.1 -0.1)">
      <use xlink:href="#DejaVuSans-32"/>
      <use xlink:href="#DejaVuSans-30" x="63.623047"/>
      <use xlink:href="#DejaVuSans-30" x="127.246094"/>
     </g>
    </g>
   </g>
   <g id="xtick_16">
    <g id="line2d_19">
     <path d="M 127.995349 158.967396 
L 125.327737 160.016792 
" style="fill: none; stroke: #000000; stroke-width: 0.8; stroke-linecap: square"/>
    </g>
    <g id="text_18">
     <!-- 300 -->
     <g transform="translate(98.72064 167.537572) scale(0.1 -0.1)">
      <use xlink:href="#DejaVuSans-33"/>
      <use xlink:href="#DejaVuSans-30" x="63.623047"/>
      <use xlink:href="#DejaVuSans-30" x="127.246094"/>
     </g>
    </g>
   </g>
   <g id="xtick_17">
    <g id="line2d_20">
     <path d="M 127.141887 130.605245 
L 124.452214 131.607838 
" style="fill: none; stroke: #000000; stroke-width: 0.8; stroke-linecap: square"/>
    </g>
    <g id="text_19">
     <!-- 400 -->
     <g transform="translate(97.714704 139.13208) scale(0.1 -0.1)">
      <use xlink:href="#DejaVuSans-34"/>
      <use xlink:href="#DejaVuSans-30" x="63.623047"/>
      <use xlink:href="#DejaVuSans-30" x="127.246094"/>
     </g>
    </g>
   </g>
   <g id="xtick_18">
    <g id="line2d_21">
     <path d="M 126.27529 101.806585 
L 123.56319 102.760802 
" style="fill: none; stroke: #000000; stroke-width: 0.8; stroke-linecap: square"/>
    </g>
    <g id="text_20">
     <!-- 500 -->
     <g transform="translate(96.693259 110.288623) scale(0.1 -0.1)">
      <use xlink:href="#DejaVuSans-35"/>
      <use xlink:href="#DejaVuSans-30" x="63.623047"/>
      <use xlink:href="#DejaVuSans-30" x="127.246094"/>
     </g>
    </g>
   </g>
   <g id="text_21">
    <!-- Z -->
    <g transform="translate(83.304556 178.888387) scale(0.1 -0.1)">
     <defs>
      <path id="DejaVuSans-5a" d="M 359 4666 
L 4025 4666 
L 4025 4184 
L 1075 531 
L 4097 531 
L 4097 0 
L 288 0 
L 288 481 
L 3238 4134 
L 359 4134 
L 359 4666 
z
" transform="scale(0.015625)"/>
     </defs>
     <use xlink:href="#DejaVuSans-5a"/>
    </g>
   </g>
  </g>
  <g id="axes_1">
   <g id="line2d_22">
    <path d="M 232.169341 178.560887 
L 232.858629 192.131966 
L 239.82188 217.831348 
L 239.011907 203.913602 
L 232.169341 178.560887 
L 250.425969 194.871093 
L 239.011907 203.913602 
L 250.425969 194.871093 
L 232.858629 192.131966 
L 250.425969 194.871093 
L 239.82188 217.831348 
L 250.425969 194.871093 
L 235.977645 198.103922 
L 236.356205 205.040527 
L 235.977645 198.103922 
L 239.413171 210.808503 
L 235.977645 198.103922 
L 138.218131 241.597797 
" clip-path="url(#p7a3722a67b)" style="fill: none; stroke: #008000; stroke-width: 1.5; stroke-linecap: square"/>
   </g>
   <g id="line2d_23">
    <path d="M 224.871487 152.893666 
L 236.879342 165.757195 
L 243.472059 188.696211 
L 231.496535 175.618931 
L 224.871487 152.893666 
L 246.841717 164.746226 
L 231.496535 175.618931 
L 246.841717 164.746226 
L 236.879342 165.757195 
L 246.841717 164.746226 
L 243.472059 188.696211 
L 246.841717 164.746226 
L 234.151208 170.755356 
L 240.194699 177.292811 
L 234.151208 170.755356 
L 237.437088 182.10602 
L 234.151208 170.755356 
L 138.218131 241.597797 
" clip-path="url(#p7a3722a67b)" style="fill: none; stroke: #008000; stroke-width: 1.5; stroke-linecap: square"/>
   </g>
   <g id="line2d_24">
    <path d="M 250.89594 195.495959 
L 238.812993 205.960067 
L 248.97776 233.809397 
L 260.83129 222.894459 
L 250.89594 195.495959 
L 262.910565 211.60995 
L 260.83129 222.894459 
L 262.910565 211.60995 
L 238.812993 205.960067 
L 262.910565 211.60995 
L 248.97776 233.809397 
L 262.910565 211.60995 
L 249.943464 214.520572 
L 243.905951 219.913705 
L 249.943464 214.520572 
L 254.957508 228.30314 
L 249.943464 214.520572 
L 138.218131 241.597797 
" clip-path="url(#p7a3722a67b)" style="fill: none; stroke: #008000; stroke-width: 1.5; stroke-linecap: square"/>
   </g>
   <g id="line2d_25">
    <path d="M 227.18672 163.491571 
L 219.477668 176.139147 
L 232.292127 202.07998 
L 239.723041 189.041385 
L 227.18672 163.491571 
L 242.875427 178.278273 
L 239.723041 189.041385 
L 242.875427 178.278273 
L 219.477668 176.139147 
L 242.875427 178.278273 
L 232.292127 202.07998 
L 242.875427 178.278273 
L 229.723981 182.669052 
L 225.904824 189.149901 
L 229.723981 182.669052 
L 236.041407 195.501336 
L 229.723981 182.669052 
L 138.218131 241.597797 
" clip-path="url(#p7a3722a67b)" style="fill: none; stroke: #008000; stroke-width: 1.5; stroke-linecap: square"/>
   </g>
   <g id="line2d_26">
    <path d="M 246.799374 188.751163 
L 248.281026 199.986284 
L 250.162226 227.545286 
L 248.655842 215.8702 
L 246.799374 188.751163 
L 263.279881 206.885907 
L 248.655842 215.8702 
L 263.279881 206.885907 
L 248.281026 199.986284 
L 263.279881 206.885907 
L 250.162226 227.545286 
L 263.279881 206.885907 
L 248.470941 208.034494 
L 249.225195 213.818067 
L 248.470941 208.034494 
L 249.401815 221.651791 
L 248.470941 208.034494 
L 138.218131 241.597797 
" clip-path="url(#p7a3722a67b)" style="fill: none; stroke: #008000; stroke-width: 1.5; stroke-linecap: square"/>
   </g>
   <g id="Path3DCollection_1">
    <defs>
     <path id="mee34ec2667" d="M 0 1.224745 
C 0.324806 1.224745 0.636353 1.095698 0.866025 0.866025 
C 1.095698 0.636353 1.224745 0.324806 1.224745 0 
C 1.224745 -0.324806 1.095698 -0.636353 0.866025 -0.866025 
C 0.636353 -1.095698 0.324806 -1.224745 0 -1.224745 
C -0.324806 -1.224745 -0.636353 -1.095698 -0.866025 -0.866025 
C -1.095698 -0.636353 -1.224745 -0.324806 -1.224745 0 
C -1.224745 0.324806 -1.095698 0.636353 -0.866025 0.866025 
C -0.636353 1.095698 -0.324806 1.224745 0 1.224745 
z
" style="stroke: #000000"/>
    </defs>
    <g clip-path="url(#p7a3722a67b)">
     <use xlink:href="#mee34ec2667" x="231.496535" y="175.618931" style="stroke: #000000"/>
     <use xlink:href="#mee34ec2667" x="231.496535" y="175.618931" style="stroke: #000000"/>
     <use xlink:href="#mee34ec2667" x="237.437088" y="182.10602" style="stroke: #000000"/>
     <use xlink:href="#mee34ec2667" x="246.841717" y="164.746226" style="stroke: #000000"/>
     <use xlink:href="#mee34ec2667" x="246.841717" y="164.746226" style="stroke: #000000"/>
     <use xlink:href="#mee34ec2667" x="246.841717" y="164.746226" style="stroke: #000000"/>
     <use xlink:href="#mee34ec2667" x="246.841717" y="164.746226" style="stroke: #000000"/>
     <use xlink:href="#mee34ec2667" x="224.871487" y="152.893666" style="stroke: #000000"/>
     <use xlink:href="#mee34ec2667" x="224.871487" y="152.893666" style="stroke: #000000"/>
     <use xlink:href="#mee34ec2667" x="234.151208" y="170.755356" style="stroke: #000000"/>
     <use xlink:href="#mee34ec2667" x="234.151208" y="170.755356" style="stroke: #000000"/>
     <use xlink:href="#mee34ec2667" x="234.151208" y="170.755356" style="stroke: #000000"/>
     <use xlink:href="#mee34ec2667" x="243.472059" y="188.696211" style="stroke: #000000"/>
     <use xlink:href="#mee34ec2667" x="243.472059" y="188.696211" style="stroke: #000000"/>
     <use xlink:href="#mee34ec2667" x="240.194699" y="177.292811" style="stroke: #000000"/>
     <use xlink:href="#mee34ec2667" x="236.879342" y="165.757195" style="stroke: #000000"/>
     <use xlink:href="#mee34ec2667" x="236.879342" y="165.757195" style="stroke: #000000"/>
     <use xlink:href="#mee34ec2667" x="138.218131" y="241.597797" style="stroke: #000000"/>
    </g>
   </g>
   <g id="text_22">
    <!-- 1 -->
    <g style="fill: #00008b" transform="translate(250.425969 194.871093) scale(0.2 -0.2)">
     <use xlink:href="#DejaVuSans-31"/>
    </g>
   </g>
   <g id="text_23">
    <!-- 2 -->
    <g style="fill: #00008b" transform="translate(246.841717 164.746226) scale(0.2 -0.2)">
     <use xlink:href="#DejaVuSans-32"/>
    </g>
   </g>
   <g id="text_24">
    <!-- 3 -->
    <g style="fill: #00008b" transform="translate(262.910565 211.60995) scale(0.2 -0.2)">
     <use xlink:href="#DejaVuSans-33"/>
    </g>
   </g>
   <g id="text_25">
    <!-- 4 -->
    <g style="fill: #00008b" transform="translate(242.875427 178.278273) scale(0.2 -0.2)">
     <use xlink:href="#DejaVuSans-34"/>
    </g>
   </g>
   <g id="text_26">
    <!-- 5 -->
    <g style="fill: #00008b" transform="translate(263.279881 206.885907) scale(0.2 -0.2)">
     <use xlink:href="#DejaVuSans-35"/>
    </g>
   </g>
   <g id="Path3DCollection_2">
    <g clip-path="url(#p7a3722a67b)">
     <use xlink:href="#mee34ec2667" x="239.011907" y="203.913602" style="stroke: #000000"/>
     <use xlink:href="#mee34ec2667" x="239.011907" y="203.913602" style="stroke: #000000"/>
     <use xlink:href="#mee34ec2667" x="138.218131" y="241.597797" style="stroke: #000000"/>
     <use xlink:href="#mee34ec2667" x="232.169341" y="178.560887" style="stroke: #000000"/>
     <use xlink:href="#mee34ec2667" x="232.169341" y="178.560887" style="stroke: #000000"/>
     <use xlink:href="#mee34ec2667" x="239.413171" y="210.808503" style="stroke: #000000"/>
     <use xlink:href="#mee34ec2667" x="235.977645" y="198.103922" style="stroke: #000000"/>
     <use xlink:href="#mee34ec2667" x="235.977645" y="198.103922" style="stroke: #000000"/>
     <use xlink:href="#mee34ec2667" x="235.977645" y="198.103922" style="stroke: #000000"/>
     <use xlink:href="#mee34ec2667" x="250.425969" y="194.871093" style="stroke: #000000"/>
     <use xlink:href="#mee34ec2667" x="250.425969" y="194.871093" style="stroke: #000000"/>
     <use xlink:href="#mee34ec2667" x="250.425969" y="194.871093" style="stroke: #000000"/>
     <use xlink:href="#mee34ec2667" x="250.425969" y="194.871093" style="stroke: #000000"/>
     <use xlink:href="#mee34ec2667" x="239.82188" y="217.831348" style="stroke: #000000"/>
     <use xlink:href="#mee34ec2667" x="239.82188" y="217.831348" style="stroke: #000000"/>
     <use xlink:href="#mee34ec2667" x="236.356205" y="205.040527" style="stroke: #000000"/>
     <use xlink:href="#mee34ec2667" x="232.858629" y="192.131966" style="stroke: #000000"/>
     <use xlink:href="#mee34ec2667" x="232.858629" y="192.131966" style="stroke: #000000"/>
    </g>
   </g>
   <g id="Path3DCollection_3">
    <g clip-path="url(#p7a3722a67b)">
     <use xlink:href="#mee34ec2667" x="248.655842" y="215.8702" style="stroke: #000000"/>
     <use xlink:href="#mee34ec2667" x="248.655842" y="215.8702" style="stroke: #000000"/>
     <use xlink:href="#mee34ec2667" x="138.218131" y="241.597797" style="stroke: #000000"/>
     <use xlink:href="#mee34ec2667" x="246.799374" y="188.751163" style="stroke: #000000"/>
     <use xlink:href="#mee34ec2667" x="246.799374" y="188.751163" style="stroke: #000000"/>
     <use xlink:href="#mee34ec2667" x="249.401815" y="221.651791" style="stroke: #000000"/>
     <use xlink:href="#mee34ec2667" x="263.279881" y="206.885907" style="stroke: #000000"/>
     <use xlink:href="#mee34ec2667" x="263.279881" y="206.885907" style="stroke: #000000"/>
     <use xlink:href="#mee34ec2667" x="263.279881" y="206.885907" style="stroke: #000000"/>
     <use xlink:href="#mee34ec2667" x="263.279881" y="206.885907" style="stroke: #000000"/>
     <use xlink:href="#mee34ec2667" x="248.470941" y="208.034494" style="stroke: #000000"/>
     <use xlink:href="#mee34ec2667" x="248.470941" y="208.034494" style="stroke: #000000"/>
     <use xlink:href="#mee34ec2667" x="248.470941" y="208.034494" style="stroke: #000000"/>
     <use xlink:href="#mee34ec2667" x="250.162226" y="227.545286" style="stroke: #000000"/>
     <use xlink:href="#mee34ec2667" x="250.162226" y="227.545286" style="stroke: #000000"/>
     <use xlink:href="#mee34ec2667" x="249.225195" y="213.818067" style="stroke: #000000"/>
     <use xlink:href="#mee34ec2667" x="248.281026" y="199.986284" style="stroke: #000000"/>
     <use xlink:href="#mee34ec2667" x="248.281026" y="199.986284" style="stroke: #000000"/>
    </g>
   </g>
   <g id="Path3DCollection_4">
    <g clip-path="url(#p7a3722a67b)">
     <use xlink:href="#mee34ec2667" x="138.218131" y="241.597797" style="stroke: #000000"/>
     <use xlink:href="#mee34ec2667" x="239.723041" y="189.041385" style="stroke: #000000"/>
     <use xlink:href="#mee34ec2667" x="239.723041" y="189.041385" style="stroke: #000000"/>
     <use xlink:href="#mee34ec2667" x="227.18672" y="163.491571" style="stroke: #000000"/>
     <use xlink:href="#mee34ec2667" x="227.18672" y="163.491571" style="stroke: #000000"/>
     <use xlink:href="#mee34ec2667" x="236.041407" y="195.501336" style="stroke: #000000"/>
     <use xlink:href="#mee34ec2667" x="229.723981" y="182.669052" style="stroke: #000000"/>
     <use xlink:href="#mee34ec2667" x="229.723981" y="182.669052" style="stroke: #000000"/>
     <use xlink:href="#mee34ec2667" x="229.723981" y="182.669052" style="stroke: #000000"/>
     <use xlink:href="#mee34ec2667" x="242.875427" y="178.278273" style="stroke: #000000"/>
     <use xlink:href="#mee34ec2667" x="242.875427" y="178.278273" style="stroke: #000000"/>
     <use xlink:href="#mee34ec2667" x="242.875427" y="178.278273" style="stroke: #000000"/>
     <use xlink:href="#mee34ec2667" x="242.875427" y="178.278273" style="stroke: #000000"/>
     <use xlink:href="#mee34ec2667" x="232.292127" y="202.07998" style="stroke: #000000"/>
     <use xlink:href="#mee34ec2667" x="232.292127" y="202.07998" style="stroke: #000000"/>
     <use xlink:href="#mee34ec2667" x="225.904824" y="189.149901" style="stroke: #000000"/>
     <use xlink:href="#mee34ec2667" x="219.477668" y="176.139147" style="stroke: #000000"/>
     <use xlink:href="#mee34ec2667" x="219.477668" y="176.139147" style="stroke: #000000"/>
    </g>
   </g>
   <g id="Path3DCollection_5">
    <g clip-path="url(#p7a3722a67b)">
     <use xlink:href="#mee34ec2667" x="138.218131" y="241.597797" style="stroke: #000000"/>
     <use xlink:href="#mee34ec2667" x="260.83129" y="222.894459" style="stroke: #000000"/>
     <use xlink:href="#mee34ec2667" x="260.83129" y="222.894459" style="stroke: #000000"/>
     <use xlink:href="#mee34ec2667" x="250.89594" y="195.495959" style="stroke: #000000"/>
     <use xlink:href="#mee34ec2667" x="250.89594" y="195.495959" style="stroke: #000000"/>
     <use xlink:href="#mee34ec2667" x="254.957508" y="228.30314" style="stroke: #000000"/>
     <use xlink:href="#mee34ec2667" x="249.943464" y="214.520572" style="stroke: #000000"/>
     <use xlink:href="#mee34ec2667" x="249.943464" y="214.520572" style="stroke: #000000"/>
     <use xlink:href="#mee34ec2667" x="249.943464" y="214.520572" style="stroke: #000000"/>
     <use xlink:href="#mee34ec2667" x="262.910565" y="211.60995" style="stroke: #000000"/>
     <use xlink:href="#mee34ec2667" x="262.910565" y="211.60995" style="stroke: #000000"/>
     <use xlink:href="#mee34ec2667" x="262.910565" y="211.60995" style="stroke: #000000"/>
     <use xlink:href="#mee34ec2667" x="262.910565" y="211.60995" style="stroke: #000000"/>
     <use xlink:href="#mee34ec2667" x="248.97776" y="233.809397" style="stroke: #000000"/>
     <use xlink:href="#mee34ec2667" x="248.97776" y="233.809397" style="stroke: #000000"/>
     <use xlink:href="#mee34ec2667" x="243.905951" y="219.913705" style="stroke: #000000"/>
     <use xlink:href="#mee34ec2667" x="238.812993" y="205.960067" style="stroke: #000000"/>
     <use xlink:href="#mee34ec2667" x="238.812993" y="205.960067" style="stroke: #000000"/>
    </g>
   </g>
  </g>
 </g>
 <defs>
  <clipPath id="p7a3722a67b">
   <rect x="103.104" y="41.472" width="266.112" height="266.112"/>
  </clipPath>
 </defs>
</svg>
